<?xml version="1.0" encoding="UTF-8"?>
<svg xmlns="http://www.w3.org/2000/svg" xmlns:xlink="http://www.w3.org/1999/xlink" width="854pt" height="480pt" viewBox="0 0 854 480" version="1.1">
<defs>
<g>
<symbol overflow="visible" id="glyph0-0">
<path style="stroke:none;" d="M 0.828125 0 L 0.828125 -6.34375 L 4.484375 -6.34375 L 4.484375 0 Z M 1.296875 -0.453125 L 4.03125 -0.453125 L 4.03125 -5.890625 L 1.296875 -5.890625 Z "/>
</symbol>
<symbol overflow="visible" id="glyph0-1">
<path style="stroke:none;" d="M 0 0 L 0 -0.375 L 0.171875 -0.375 C 0.335938 -0.375 0.460938 -0.414062 0.546875 -0.5 C 0.640625 -0.59375 0.738281 -0.78125 0.84375 -1.0625 L 2.8125 -6.34375 L 3.515625 -6.34375 L 5.515625 -0.84375 C 5.585938 -0.65625 5.664062 -0.53125 5.75 -0.46875 C 5.84375 -0.40625 5.976562 -0.375 6.15625 -0.375 L 6.265625 -0.375 L 6.265625 0 L 3.828125 0 L 3.828125 -0.375 L 4.03125 -0.375 C 4.382812 -0.375 4.5625 -0.515625 4.5625 -0.796875 C 4.5625 -0.847656 4.554688 -0.898438 4.546875 -0.953125 C 4.535156 -1.003906 4.515625 -1.0625 4.484375 -1.125 L 4.140625 -2.125 L 1.796875 -2.125 L 1.453125 -1.1875 C 1.398438 -1.050781 1.375 -0.925781 1.375 -0.8125 C 1.375 -0.519531 1.570312 -0.375 1.96875 -0.375 L 2.171875 -0.375 L 2.171875 0 Z M 1.96875 -2.5625 L 3.96875 -2.5625 L 3.421875 -4.125 C 3.328125 -4.382812 3.238281 -4.628906 3.15625 -4.859375 C 3.082031 -5.085938 3.023438 -5.3125 2.984375 -5.53125 C 2.941406 -5.3125 2.882812 -5.101562 2.8125 -4.90625 C 2.75 -4.71875 2.664062 -4.484375 2.5625 -4.203125 Z "/>
</symbol>
<symbol overflow="visible" id="glyph0-2">
<path style="stroke:none;" d="M 0.15625 2.140625 L 0.15625 1.765625 L 0.234375 1.765625 C 0.429688 1.765625 0.597656 1.722656 0.734375 1.640625 C 0.878906 1.566406 0.953125 1.394531 0.953125 1.125 L 0.953125 -3.78125 C 0.953125 -4.039062 0.878906 -4.207031 0.734375 -4.28125 C 0.597656 -4.351562 0.429688 -4.390625 0.234375 -4.390625 L 0.109375 -4.390625 L 0.109375 -4.765625 L 1.671875 -4.765625 L 1.765625 -3.96875 L 1.796875 -3.96875 C 1.929688 -4.238281 2.101562 -4.453125 2.3125 -4.609375 C 2.53125 -4.773438 2.8125 -4.859375 3.15625 -4.859375 C 3.738281 -4.859375 4.1875 -4.660156 4.5 -4.265625 C 4.8125 -3.867188 4.96875 -3.242188 4.96875 -2.390625 C 4.96875 -1.535156 4.8125 -0.90625 4.5 -0.5 C 4.1875 -0.101562 3.738281 0.09375 3.15625 0.09375 C 2.8125 0.09375 2.53125 0.0195312 2.3125 -0.125 C 2.09375 -0.269531 1.921875 -0.457031 1.796875 -0.6875 L 1.765625 -0.6875 C 1.773438 -0.519531 1.78125 -0.335938 1.78125 -0.140625 C 1.789062 0.046875 1.796875 0.195312 1.796875 0.3125 L 1.796875 1.171875 C 1.796875 1.429688 1.867188 1.59375 2.015625 1.65625 C 2.160156 1.726562 2.332031 1.765625 2.53125 1.765625 L 2.546875 1.765625 L 2.546875 2.140625 Z M 3.015625 -0.484375 C 3.398438 -0.484375 3.675781 -0.644531 3.84375 -0.96875 C 4.019531 -1.300781 4.109375 -1.78125 4.109375 -2.40625 C 4.109375 -3.039062 4.019531 -3.507812 3.84375 -3.8125 C 3.675781 -4.125 3.394531 -4.28125 3 -4.28125 C 2.539062 -4.28125 2.222656 -4.125 2.046875 -3.8125 C 1.878906 -3.507812 1.796875 -3.035156 1.796875 -2.390625 C 1.796875 -1.773438 1.878906 -1.300781 2.046875 -0.96875 C 2.222656 -0.644531 2.546875 -0.484375 3.015625 -0.484375 Z "/>
</symbol>
<symbol overflow="visible" id="glyph0-3">
<path style="stroke:none;" d="M 0.109375 0 L 0.109375 -0.375 L 0.234375 -0.375 C 0.429688 -0.375 0.597656 -0.410156 0.734375 -0.484375 C 0.878906 -0.554688 0.953125 -0.734375 0.953125 -1.015625 L 0.953125 -5.78125 C 0.953125 -6.039062 0.878906 -6.207031 0.734375 -6.28125 C 0.597656 -6.351562 0.429688 -6.390625 0.234375 -6.390625 L 0.109375 -6.390625 L 0.109375 -6.75 L 1.796875 -6.75 L 1.796875 -1.015625 C 1.796875 -0.734375 1.863281 -0.554688 2 -0.484375 C 2.144531 -0.410156 2.320312 -0.375 2.53125 -0.375 L 2.640625 -0.375 L 2.640625 0 Z "/>
</symbol>
<symbol overflow="visible" id="glyph0-4">
<path style="stroke:none;" d="M 2.546875 0.09375 C 1.898438 0.09375 1.394531 -0.117188 1.03125 -0.546875 C 0.664062 -0.972656 0.484375 -1.570312 0.484375 -2.34375 C 0.484375 -3.175781 0.65625 -3.800781 1 -4.21875 C 1.34375 -4.644531 1.832031 -4.859375 2.46875 -4.859375 C 3.039062 -4.859375 3.488281 -4.675781 3.8125 -4.3125 C 4.144531 -3.957031 4.3125 -3.429688 4.3125 -2.734375 L 4.3125 -2.328125 L 1.34375 -2.328125 C 1.363281 -1.671875 1.484375 -1.195312 1.703125 -0.90625 C 1.921875 -0.613281 2.242188 -0.46875 2.671875 -0.46875 C 2.984375 -0.46875 3.242188 -0.53125 3.453125 -0.65625 C 3.671875 -0.789062 3.835938 -0.9375 3.953125 -1.09375 C 3.992188 -1.070312 4.03125 -1.035156 4.0625 -0.984375 C 4.09375 -0.929688 4.109375 -0.867188 4.109375 -0.796875 C 4.109375 -0.671875 4.050781 -0.539062 3.9375 -0.40625 C 3.832031 -0.269531 3.660156 -0.148438 3.421875 -0.046875 C 3.191406 0.046875 2.898438 0.09375 2.546875 0.09375 Z M 3.40625 -2.796875 C 3.40625 -3.273438 3.332031 -3.65625 3.1875 -3.9375 C 3.050781 -4.226562 2.800781 -4.375 2.4375 -4.375 C 2.113281 -4.375 1.859375 -4.238281 1.671875 -3.96875 C 1.492188 -3.695312 1.394531 -3.304688 1.375 -2.796875 Z "/>
</symbol>
</g>
</defs>
<g id="surface37">
<g style="fill:rgb(0%,100%,0%);fill-opacity:1;">
  <use xlink:href="#glyph0-1" x="30" y="29.50293"/>
  <use xlink:href="#glyph0-2" x="36" y="29.50293"/>
  <use xlink:href="#glyph0-2" x="41" y="29.50293"/>
  <use xlink:href="#glyph0-3" x="46" y="29.50293"/>
  <use xlink:href="#glyph0-4" x="49" y="29.50293"/>
</g>
</g>
</svg>
