<?xml version="1.0" encoding="UTF-8"?>
<svg xmlns="http://www.w3.org/2000/svg" xmlns:xlink="http://www.w3.org/1999/xlink" width="854pt" height="480pt" viewBox="0 0 854 480" version="1.1">
<defs>
<g>
<symbol overflow="visible" id="glyph0-0">
<path style="stroke:none;" d="M 0.734375 0 L 0.734375 -5.5625 L 3.921875 -5.5625 L 3.921875 0 Z M 1.125 -0.390625 L 3.53125 -0.390625 L 3.53125 -5.15625 L 1.125 -5.15625 Z "/>
</symbol>
<symbol overflow="visible" id="glyph0-1">
<path style="stroke:none;" d="M 0.46875 0 L 0.46875 -0.5625 L 1.78125 -2.0625 C 2.050781 -2.382812 2.265625 -2.664062 2.421875 -2.90625 C 2.585938 -3.144531 2.703125 -3.367188 2.765625 -3.578125 C 2.835938 -3.785156 2.875 -4.007812 2.875 -4.25 C 2.875 -4.550781 2.8125 -4.789062 2.6875 -4.96875 C 2.5625 -5.15625 2.359375 -5.25 2.078125 -5.25 C 1.847656 -5.25 1.671875 -5.191406 1.546875 -5.078125 C 1.421875 -4.972656 1.335938 -4.832031 1.296875 -4.65625 C 1.253906 -4.476562 1.234375 -4.285156 1.234375 -4.078125 C 1.046875 -4.078125 0.882812 -4.113281 0.75 -4.1875 C 0.625 -4.257812 0.5625 -4.394531 0.5625 -4.59375 C 0.5625 -4.894531 0.6875 -5.144531 0.9375 -5.34375 C 1.195312 -5.539062 1.578125 -5.640625 2.078125 -5.640625 C 2.578125 -5.640625 2.96875 -5.519531 3.25 -5.28125 C 3.53125 -5.039062 3.671875 -4.722656 3.671875 -4.328125 C 3.671875 -3.972656 3.554688 -3.617188 3.328125 -3.265625 C 3.097656 -2.921875 2.773438 -2.523438 2.359375 -2.078125 L 1.046875 -0.625 L 2.84375 -0.625 C 3.082031 -0.625 3.242188 -0.679688 3.328125 -0.796875 C 3.410156 -0.921875 3.46875 -1.054688 3.5 -1.203125 L 3.53125 -1.34375 L 3.859375 -1.34375 L 3.828125 0 Z "/>
</symbol>
</g>
</defs>
<g id="surface32">
<g style="fill:rgb(100%,100%,100%);fill-opacity:1;">
  <use xlink:href="#glyph0-1" x="30" y="28.314453"/>
</g>
</g>
</svg>
