<?xml version="1.0" encoding="UTF-8"?>
<svg xmlns="http://www.w3.org/2000/svg" xmlns:xlink="http://www.w3.org/1999/xlink" width="854pt" height="480pt" viewBox="0 0 854 480" version="1.1">
<defs>
<g>
<symbol overflow="visible" id="glyph0-0">
<path style="stroke:none;" d=""/>
</symbol>
<symbol overflow="visible" id="glyph0-1">
<path style="stroke:none;" d="M 1.546875 0 L 2.671875 0 L 2.671875 -0.078125 C 2.484375 -0.078125 2.375 -0.171875 2.203125 -0.421875 L 1.5 -1.5 L 1.953125 -2.171875 C 2.0625 -2.328125 2.21875 -2.40625 2.40625 -2.421875 L 2.40625 -2.5 L 1.53125 -2.5 L 1.53125 -2.421875 C 1.703125 -2.40625 1.75 -2.375 1.75 -2.296875 C 1.75 -2.234375 1.6875 -2.109375 1.546875 -1.9375 C 1.515625 -1.90625 1.453125 -1.796875 1.375 -1.6875 L 1.328125 -1.75 C 1.25 -1.890625 1.203125 -1.953125 1.1875 -1.984375 C 1.078125 -2.15625 1.046875 -2.234375 1.046875 -2.296875 C 1.046875 -2.375 1.125 -2.421875 1.28125 -2.421875 L 1.28125 -2.5 L 0.140625 -2.5 L 0.140625 -2.421875 L 0.1875 -2.421875 C 0.34375 -2.421875 0.4375 -2.34375 0.609375 -2.09375 L 1.140625 -1.28125 L 0.5 -0.359375 C 0.328125 -0.140625 0.28125 -0.09375 0.09375 -0.078125 L 0.09375 0 L 0.90625 0 L 0.90625 -0.078125 C 0.734375 -0.078125 0.671875 -0.109375 0.671875 -0.1875 C 0.671875 -0.21875 0.71875 -0.296875 0.796875 -0.40625 L 1.234375 -1.09375 L 1.734375 -0.3125 C 1.75 -0.28125 1.765625 -0.25 1.765625 -0.21875 C 1.765625 -0.109375 1.734375 -0.09375 1.546875 -0.078125 Z "/>
</symbol>
<symbol overflow="visible" id="glyph0-2">
<path style="stroke:none;" d="M 1.65625 -3.546875 L 1.65625 -3.6875 L 0.484375 -3.6875 L 0.484375 0.875 L 1.65625 0.875 L 1.65625 0.734375 L 1.1875 0.734375 C 1 0.71875 0.921875 0.640625 0.90625 0.4375 L 0.90625 -3.296875 C 0.921875 -3.484375 0.984375 -3.53125 1.15625 -3.546875 Z "/>
</symbol>
<symbol overflow="visible" id="glyph0-3">
<path style="stroke:none;" d="M 0.03125 0 L 1.34375 0 L 1.34375 -0.078125 L 1.234375 -0.09375 C 1 -0.109375 0.921875 -0.171875 0.921875 -0.375 L 0.921875 -1.390625 L 1.703125 -0.359375 C 1.71875 -0.328125 1.734375 -0.296875 1.75 -0.28125 C 1.796875 -0.234375 1.8125 -0.1875 1.8125 -0.171875 C 1.8125 -0.109375 1.765625 -0.078125 1.703125 -0.078125 L 1.59375 -0.078125 L 1.59375 0 L 2.8125 0 L 2.8125 -0.078125 C 2.5625 -0.09375 2.390625 -0.203125 2.15625 -0.484375 L 1.3125 -1.5625 L 1.46875 -1.71875 C 2.15625 -2.34375 2.3125 -2.4375 2.671875 -2.421875 L 2.671875 -2.5 L 1.53125 -2.5 L 1.53125 -2.421875 C 1.75 -2.421875 1.8125 -2.390625 1.8125 -2.328125 C 1.8125 -2.28125 1.765625 -2.203125 1.6875 -2.125 L 0.921875 -1.453125 L 0.921875 -3.78125 L 0.90625 -3.796875 C 0.6875 -3.734375 0.515625 -3.6875 0.203125 -3.59375 L 0.03125 -3.546875 L 0.03125 -3.46875 C 0.109375 -3.46875 0.15625 -3.484375 0.21875 -3.484375 C 0.40625 -3.484375 0.453125 -3.40625 0.453125 -3.140625 L 0.453125 -0.453125 C 0.453125 -0.15625 0.4375 -0.140625 0.03125 -0.078125 Z "/>
</symbol>
<symbol overflow="visible" id="glyph0-4">
<path style="stroke:none;" d="M 0.1875 0.734375 L 0.1875 0.875 L 1.359375 0.875 L 1.359375 -3.6875 L 0.1875 -3.6875 L 0.1875 -3.546875 L 0.671875 -3.546875 C 0.859375 -3.53125 0.9375 -3.453125 0.9375 -3.25 L 0.9375 0.484375 C 0.9375 0.65625 0.875 0.71875 0.6875 0.734375 Z "/>
</symbol>
</g>
</defs>
<g id="surface51">
<g style="fill:rgb(34.509804%,76.862745%,86.666667%);fill-opacity:1;">
  <use xlink:href="#glyph0-1" x="30" y="23.794922"/>
  <use xlink:href="#glyph0-2" x="32.777344" y="23.794922"/>
  <use xlink:href="#glyph0-3" x="34.681641" y="23.794922"/>
  <use xlink:href="#glyph0-4" x="37.458984" y="23.794922"/>
</g>
</g>
</svg>
