<?xml version="1.0" encoding="UTF-8"?>
<svg xmlns="http://www.w3.org/2000/svg" xmlns:xlink="http://www.w3.org/1999/xlink" width="854pt" height="480pt" viewBox="0 0 854 480" version="1.1">
<defs>
<g>
<symbol overflow="visible" id="glyph0-0">
<path style="stroke:none;" d="M 0.65625 2.359375 L 0.65625 -9.390625 L 7.328125 -9.390625 L 7.328125 2.359375 Z M 1.40625 1.609375 L 6.59375 1.609375 L 6.59375 -8.65625 L 1.40625 -8.65625 Z "/>
</symbol>
<symbol overflow="visible" id="glyph0-1">
<path style="stroke:none;" d="M 3.90625 -9.71875 L 4.46875 -9.71875 L 4.515625 -9.671875 L 4.515625 -9.421875 C 4.640625 -9.179688 5.078125 -8.925781 5.828125 -8.65625 C 6.867188 -8.351562 7.390625 -7.898438 7.390625 -7.296875 C 7.390625 -6.671875 7.125 -6.148438 6.59375 -5.734375 L 6.5625 -5.734375 L 6.375 -5.9375 C 6.632812 -6.144531 6.765625 -6.429688 6.765625 -6.796875 C 6.765625 -7.097656 6.269531 -7.40625 5.28125 -7.71875 C 4.882812 -7.894531 4.628906 -8.039062 4.515625 -8.15625 L 4.515625 -1.21875 C 4.515625 -0.5625 4.03125 -0.132812 3.0625 0.0625 L 2.6875 0.0625 C 1.644531 0.0625 1.125 -0.300781 1.125 -1.03125 C 1.125 -1.59375 1.582031 -1.925781 2.5 -2.03125 L 2.65625 -2.03125 C 3.070312 -2.03125 3.472656 -1.890625 3.859375 -1.609375 L 3.859375 -9.671875 Z "/>
</symbol>
</g>
</defs>
<g id="surface21">
<g style="fill:rgb(100%,100%,0%);fill-opacity:1;">
  <use xlink:href="#glyph0-1" x="30" y="32.375977"/>
</g>
</g>
</svg>
